<svg version="1.1" id="Layer_1" xmlns="http://www.w3.org/2000/svg" xmlns:xlink="http://www.w3.org/1999/xlink" x="0px" y="0px"
	 width="100%" viewBox="0 0 500 500" enable-background="new 0 0 500 500" xml:space="preserve">
<path fill="#000000" opacity="1.000000" stroke="none" 
	d="
M237.000000,501.000000 
	C158.000015,501.000000 79.500038,501.000000 1.000042,501.000000 
	C1.000028,334.333405 1.000028,167.666779 1.000014,1.000132 
	C167.666565,1.000088 334.333130,1.000088 500.999756,1.000044 
	C500.999847,167.666519 500.999847,334.333038 500.999939,500.999786 
	C413.166656,501.000000 325.333344,501.000000 237.000000,501.000000 
M339.306000,321.782166 
	C334.196747,318.438354 327.340057,320.078369 327.066925,324.827240 
	C326.842773,328.724670 327.435822,332.453461 331.827148,334.176636 
	C335.921356,335.783264 338.688782,333.987366 341.650085,331.083282 
	C345.827637,335.525452 350.260620,336.038391 357.483337,333.417267 
	C360.166870,335.744751 361.255859,334.756714 361.191040,331.589264 
	C361.075348,325.937256 360.949585,320.284760 360.728119,314.636383 
	C360.692047,313.716156 360.142517,312.816071 359.830292,311.906677 
	C359.367035,311.943817 358.903778,311.980957 358.440521,312.018097 
	C358.320160,313.849640 358.214569,315.682343 358.076508,317.512543 
	C357.740295,321.969604 357.388977,326.425537 357.063446,330.147705 
	C355.928772,328.115753 354.794128,326.083832 353.902130,324.486481 
	C354.377838,323.561676 354.920288,322.507050 355.462738,321.452423 
	C354.387512,320.951660 353.328247,320.071472 352.233917,320.025513 
	C349.580780,319.914093 346.911346,320.191071 344.348541,320.306976 
	C344.054962,317.836060 343.853851,316.143555 343.652771,314.451050 
	C343.061279,314.378021 342.469818,314.304993 341.878357,314.231964 
	C341.506378,316.810455 341.134399,319.388916 340.401062,321.934753 
	C340.401062,321.934753 340.041992,321.986328 339.306000,321.782166 
M211.639023,324.590881 
	C212.282883,327.206329 212.135208,331.264832 213.732971,332.141174 
	C217.217377,334.052429 221.590073,334.344238 226.650131,335.547546 
	C226.650131,330.226318 226.736374,326.188080 226.560623,322.161255 
	C226.533096,321.530426 225.350266,320.477722 224.642090,320.425354 
	C219.959518,320.079163 214.912552,318.700439 211.687073,323.025696 
	C210.288589,316.909912 205.769211,322.094391 203.074341,319.928833 
	C203.074341,323.283478 203.009109,325.920288 203.095596,328.552155 
	C203.161301,330.551270 203.420044,332.544037 203.592896,334.539642 
	C208.219910,333.836639 205.439529,330.310760 205.687485,328.251282 
	C206.268616,323.424957 206.976868,322.626678 211.639023,324.590881 
M186.230972,324.828094 
	C182.777649,318.335907 177.119461,319.867676 171.861481,320.587555 
	C171.861481,327.035339 171.861481,333.233917 171.861481,339.432495 
	C172.315857,339.463409 172.770248,339.494354 173.224625,339.525269 
	C173.606308,337.617798 173.987976,335.710327 174.374146,333.780365 
	C180.473099,335.632751 181.418030,335.268127 187.051483,329.870667 
	C189.692886,337.224396 195.828842,333.734406 200.706207,334.261627 
	C200.706207,329.715576 200.706207,325.175568 200.706207,320.638916 
	C195.417664,320.512268 189.596497,317.629883 186.230972,324.828094 
M241.483856,228.002304 
	C246.913605,223.565247 251.888672,224.078262 257.579498,228.208923 
	C263.602783,232.580887 274.856750,229.429901 277.820831,221.086777 
	C280.426544,213.752258 280.453461,206.680969 277.587006,199.628082 
	C287.131500,195.945557 292.973145,189.359833 292.625458,183.053162 
	C292.249054,176.225327 287.621826,171.956436 277.404419,169.195526 
	C278.391479,160.315079 273.308044,155.232391 265.654755,152.586929 
	C258.683777,150.177292 253.816025,154.529053 249.424850,159.277679 
	C244.318466,154.320099 239.160049,150.031738 231.408798,153.016663 
	C223.726364,155.975113 221.235550,162.150482 221.068710,169.611557 
	C212.097458,170.846390 207.195175,175.014114 206.358627,181.880157 
	C205.489868,189.010452 210.572433,195.187302 220.933533,199.605423 
	C217.945923,208.755157 217.164246,217.848846 223.803146,225.739609 
	C228.427856,231.236374 234.561981,231.455078 241.483856,228.002304 
M319.734131,258.590729 
	C318.498291,260.626709 316.329071,262.604034 316.196716,264.709412 
	C315.748993,271.832092 316.022522,279.000153 316.021515,286.150848 
	C316.020844,290.973358 315.929626,295.798370 316.057648,300.617462 
	C316.133209,303.462799 316.951904,305.852539 320.586945,305.895050 
	C324.362610,305.939209 324.844147,303.574463 324.811493,300.645844 
	C324.778961,297.728882 324.804352,294.811249 324.804352,291.787964 
	C335.367645,294.031799 343.461487,294.359070 347.782501,286.298859 
	C351.581390,279.212677 350.699921,267.622192 345.398376,262.147461 
	C340.497314,257.086365 332.712769,256.637085 325.636261,260.626740 
	C323.637207,259.831757 322.057770,259.203613 319.734131,258.590729 
M126.530113,258.051300 
	C124.813431,258.886078 123.096748,259.720825 121.321892,260.583893 
	C113.156487,256.379883 105.250107,257.415436 100.710350,263.344849 
	C95.192940,270.551147 95.420349,282.576660 101.196678,289.064636 
	C106.311386,294.809479 114.238335,295.605408 120.344513,292.025238 
	C123.966949,292.471313 126.628098,293.602509 128.284760,292.759552 
	C129.719696,292.029419 130.635620,289.081696 130.704941,287.076935 
	C130.975357,279.256134 131.037979,271.410004 130.662247,263.598083 
	C130.570740,261.695251 128.516922,259.886780 126.530113,258.051300 
M377.662506,292.068146 
	C382.184387,294.536316 386.913879,294.501465 391.419220,292.439697 
	C393.543304,291.467651 394.622925,291.114685 396.760132,292.734375 
	C399.630981,294.910095 402.695618,293.469513 402.840790,289.923462 
	C403.225525,280.526917 403.285309,271.091736 402.857361,261.700043 
	C402.690765,258.044373 399.558472,257.193665 396.269409,258.605194 
	C394.645813,259.301941 392.362061,259.641296 390.780731,259.054443 
	C383.289703,256.274506 374.069336,259.541687 371.086670,266.541260 
	C367.741974,274.390289 367.938507,285.913330 377.662506,292.068146 
M175.022263,266.731537 
	C174.549561,267.969177 173.960800,269.176056 173.623291,270.449524 
	C171.652008,277.887299 174.353531,287.126862 180.100098,291.124481 
	C186.046936,295.261353 192.231186,294.454468 197.471832,291.498077 
	C200.277557,292.194275 203.066299,293.797272 204.501801,292.990967 
	C205.991959,292.153961 206.745193,289.005951 206.823318,286.832733 
	C207.109802,278.864288 207.049835,270.880371 206.983292,262.903412 
	C206.944061,258.201294 203.975281,256.831635 199.773300,259.136993 
	C198.623596,259.767761 196.749557,259.863007 195.502045,259.404205 
	C186.961929,256.263336 180.754547,258.265930 175.022263,266.731537 
M276.174286,268.968750 
	C272.497681,283.682220 280.869568,294.985870 294.247742,293.725128 
	C301.525024,293.039276 307.488831,289.250519 309.744690,282.190033 
	C312.178864,274.571442 309.665680,265.544128 304.184814,261.376343 
	C296.984528,255.901123 282.251465,255.597153 276.174286,268.968750 
M141.617996,258.564087 
	C140.236038,260.278473 137.833725,261.897247 137.662445,263.725067 
	C137.137543,269.326752 137.345306,275.011963 137.499191,280.658417 
	C137.681808,287.358948 142.677917,292.931396 148.795670,293.570099 
	C159.234161,294.659821 165.328491,291.890411 166.706528,284.015045 
	C167.919144,277.084991 167.822144,269.864990 167.600647,262.795044 
	C167.555283,261.347595 164.388428,259.997925 162.660431,258.603180 
	C161.468353,260.231201 159.397415,261.782806 159.248016,263.501465 
	C158.789078,268.780609 159.329514,274.141785 158.966995,279.435852 
	C158.714752,283.119781 156.949936,286.113129 152.509109,286.047119 
	C148.005463,285.980164 146.528305,283.119446 146.458847,279.182526 
	C146.370911,274.198029 146.307068,269.208160 146.443893,264.226410 
	C146.528305,261.152435 145.595200,259.102356 141.617996,258.564087 
M243.943329,273.480499 
	C243.945343,270.321899 243.878632,267.161285 243.969208,264.005249 
	C244.055634,260.993958 243.409653,258.627869 239.778961,258.645111 
	C236.102768,258.662567 235.061630,260.904633 235.116745,264.205841 
	C235.205505,269.523956 235.331955,274.854248 235.070068,280.161011 
	C234.886658,283.877808 233.075119,286.321655 228.747635,286.078949 
	C224.578934,285.845093 222.936737,283.737518 222.978302,279.716583 
	C223.034927,274.239258 223.185440,268.730103 222.647034,263.298889 
	C222.480225,261.616211 219.920792,258.691895 218.949615,258.880005 
	C217.012909,259.255219 213.942383,261.377563 213.928482,262.803528 
	C213.856293,270.204376 214.137802,277.681641 215.220551,284.995392 
	C215.951843,289.935120 219.903976,293.064331 224.916901,293.454163 
	C231.129501,293.937347 238.244507,294.944946 241.487122,287.806763 
	C243.302734,283.809906 243.187790,278.936127 243.943329,273.480499 
M254.680634,256.105743 
	C254.979828,258.439240 253.933197,259.018707 251.657379,259.445526 
	C250.301117,259.699921 248.623993,261.871094 248.418869,263.363129 
	C248.281570,264.361694 250.364395,265.833344 251.673737,266.793213 
	C252.343857,267.284515 253.497269,267.116577 254.695648,267.283203 
	C254.695648,273.190613 254.605209,278.821747 254.717834,284.448822 
	C254.869293,292.016357 261.907959,296.261139 268.685028,292.597504 
	C269.969879,291.902954 270.084839,289.044281 270.739594,287.184143 
	C269.433807,286.740112 268.151611,286.191467 266.813812,285.889191 
	C265.940216,285.691833 264.985840,285.852051 263.890015,285.852051 
	C263.890015,279.391571 263.890015,273.310272 263.890015,267.225616 
	C266.737457,266.257080 271.230408,268.328552 271.281952,263.301086 
	C271.333313,258.286713 267.003326,259.401184 264.995087,257.932983 
	C263.061401,255.628510 261.127747,253.324051 259.194061,251.019592 
	C257.692749,252.442032 256.191437,253.864471 254.680634,256.105743 
M356.652496,292.775055 
	C361.355499,294.338898 364.199738,293.161224 364.380157,288.827820 
	C364.738007,280.231689 364.733063,271.602020 364.331238,263.011810 
	C364.268463,261.669983 361.461700,259.812408 359.662506,259.433319 
	C358.553192,259.199585 355.761444,261.304901 355.751678,262.378418 
	C355.661926,272.275299 356.014862,282.176178 356.652496,292.775055 
M160.738449,314.780212 
	C159.234360,313.782227 157.810150,312.626526 156.210724,311.816864 
	C151.984116,309.677338 146.255249,311.230225 143.010941,315.248962 
	C139.624191,319.444183 139.423370,325.310028 142.524124,329.469727 
	C146.013885,334.151276 151.360153,335.882904 155.941574,333.815491 
	C163.541779,330.385864 165.525116,323.512329 160.738449,314.780212 
M264.433533,329.689789 
	C267.480347,337.076172 273.500580,333.912750 279.076996,334.015533 
	C278.210388,326.524261 279.901978,319.146820 277.230255,312.121490 
	C276.217743,313.591583 276.162354,315.015594 276.091125,316.438843 
	C276.018585,317.888245 275.930511,319.336853 275.846924,320.826477 
	C267.382263,318.700836 263.963287,321.127991 264.433533,329.689789 
M320.841827,320.098877 
	C317.753967,320.235291 314.666138,320.371704 311.169617,320.526184 
	C311.169617,326.129425 311.095215,331.403107 311.249725,336.670013 
	C311.272919,337.461090 312.366913,338.220734 312.965576,338.994934 
	C313.467804,338.313416 314.163757,337.697266 314.421722,336.933258 
	C314.723083,336.040710 314.642365,335.019135 314.730194,334.021759 
	C320.313049,335.242401 324.858093,333.822144 325.747498,330.184631 
	C326.734802,326.146393 326.462982,322.179199 320.841827,320.098877 
M283.849731,333.760345 
	C285.112518,334.085571 286.374115,334.678192 287.638367,334.684021 
	C290.948425,334.699310 295.121704,331.038483 294.968231,328.484741 
	C294.647980,323.155914 292.031006,320.191040 287.674835,319.925598 
	C284.250244,319.716919 281.772095,321.090790 280.609314,324.198029 
	C279.285706,327.734894 279.638519,331.064087 283.849731,333.760345 
M244.536179,322.129730 
	C241.860001,325.649170 241.945618,329.753662 244.813568,332.410370 
	C246.588821,334.054840 250.627594,334.417480 253.221420,333.732239 
	C256.724121,332.806824 258.237488,326.945557 256.634644,323.648468 
	C254.732193,319.735077 250.049072,318.870331 244.536179,322.129730 
M239.935013,325.720062 
	C238.978363,325.002930 238.021713,324.285767 237.065063,323.568604 
	C237.165588,323.382904 237.266098,323.197235 237.366608,323.011536 
	C238.380112,323.307404 239.393616,323.603271 240.407104,323.899170 
	C240.494553,322.145508 239.780106,320.345520 238.935684,320.282318 
	C237.360718,320.164490 235.710175,321.056244 234.091080,321.527863 
	C235.470795,324.438507 236.850510,327.349182 238.634323,331.112305 
	C236.027649,334.931946 235.146179,327.767090 231.111633,328.702301 
	C232.822235,330.989380 233.759094,333.296021 235.435135,334.147186 
	C236.760910,334.820496 240.332001,334.103424 240.567276,333.310150 
	C241.206558,331.154663 240.603851,328.630768 239.935013,325.720062 
M302.268341,323.986633 
	C302.473541,322.920837 302.678772,321.855072 302.884003,320.789246 
	C300.743286,320.505188 298.602539,320.221100 295.247406,319.775879 
	C296.297852,322.980865 296.687225,325.173309 297.724731,326.997040 
	C298.470856,328.308563 300.081757,329.128113 301.306885,330.167145 
	C299.955933,331.080627 298.604980,331.994141 296.298981,333.553436 
	C298.241486,334.045074 299.748657,334.942810 300.756500,334.552216 
	C302.047089,334.052094 303.910065,332.411926 303.808258,331.443665 
	C303.539612,328.888672 302.343353,326.431213 302.268341,323.986633 
M364.358948,249.269470 
	C360.744781,246.494461 355.933258,246.564575 355.315247,249.542297 
	C354.986328,251.127060 355.205322,253.917587 356.139221,254.438385 
	C357.921387,255.432220 360.683533,255.921326 362.476440,255.207397 
	C363.692596,254.723129 363.949493,251.829834 364.358948,249.269470 
M231.024734,327.524475 
	C230.899551,325.250214 230.774368,322.975952 230.649200,320.701721 
	C230.176514,320.760071 229.703842,320.818451 229.231155,320.876801 
	C227.683655,327.430908 228.241455,332.805634 231.007889,334.576569 
	C231.007889,332.363678 231.007889,330.391785 231.024734,327.524475 
z"/>
<path fill="#CEE4CE" opacity="1.000000" stroke="none" 
	d="
M241.188629,228.265945 
	C234.561981,231.455078 228.427856,231.236374 223.803146,225.739609 
	C217.164246,217.848846 217.945923,208.755157 220.938217,199.604919 
	C210.572433,195.187302 205.489868,189.010452 206.358627,181.880157 
	C207.195175,175.014114 212.097458,170.846390 221.068710,169.611557 
	C221.235550,162.150482 223.726364,155.975113 231.408798,153.016663 
	C239.160049,150.031738 244.318466,154.320099 249.424850,159.277679 
	C253.816025,154.529053 258.683777,150.177292 265.654755,152.586929 
	C273.308044,155.232391 278.391479,160.315079 277.404419,169.195526 
	C287.621826,171.956436 292.249054,176.225327 292.625458,183.053162 
	C292.973145,189.359833 287.131500,195.945557 277.587006,199.628082 
	C280.453461,206.680969 280.426544,213.752258 277.820831,221.086777 
	C274.856750,229.429901 263.602783,232.580887 257.579498,228.208923 
	C251.888672,224.078262 246.913605,223.565247 241.188629,228.265945 
M209.662399,185.166565 
	C211.301254,193.505646 218.707413,195.040726 225.001617,197.711258 
	C221.705765,205.794189 221.054199,211.725403 222.717575,217.581635 
	C225.057495,225.819839 232.017044,229.577240 239.323456,225.394974 
	C246.242599,221.434387 251.757355,220.456116 259.136993,225.075317 
	C266.744080,229.836853 274.105438,225.124985 276.194458,216.430069 
	C277.830963,209.618546 276.243469,203.586639 273.296295,198.161407 
	C277.213776,196.115189 281.116211,194.632843 284.373169,192.263306 
	C291.840179,186.830795 290.718719,177.158340 282.252808,173.732162 
	C280.027039,172.831390 277.231750,173.337814 274.151093,173.167847 
	C274.151093,171.827118 274.156342,170.199478 274.150177,168.571854 
	C274.125610,162.076828 271.539185,157.898438 266.426575,156.086319 
	C261.050018,154.180618 255.725967,155.782669 252.126938,161.114532 
	C249.619217,164.829651 248.429230,164.748138 246.224747,160.859283 
	C243.399002,155.874435 238.110001,154.068237 232.532181,156.087646 
	C227.792877,157.803467 223.848557,161.419464 224.592499,167.541245 
	C224.836945,169.552780 224.452881,171.640717 224.352844,173.765717 
	C215.105423,171.774017 209.720901,175.865570 209.662399,185.166565 
z"/>
<path fill="#EFF7EF" opacity="1.000000" stroke="none" 
	d="
M320.106232,258.583130 
	C322.057770,259.203613 323.637207,259.831757 325.636261,260.626740 
	C332.712769,256.637085 340.497314,257.086365 345.398376,262.147461 
	C350.699921,267.622192 351.581390,279.212677 347.782501,286.298859 
	C343.461487,294.359070 335.367645,294.031799 324.804352,291.787964 
	C324.804352,294.811249 324.778961,297.728882 324.811493,300.645844 
	C324.844147,303.574463 324.362610,305.939209 320.586945,305.895050 
	C316.951904,305.852539 316.133209,303.462799 316.057648,300.617462 
	C315.929626,295.798370 316.020844,290.973358 316.021515,286.150848 
	C316.022522,279.000153 315.748993,271.832092 316.196716,264.709412 
	C316.329071,262.604034 318.498291,260.626709 320.106232,258.583130 
M340.550873,270.231934 
	C338.273499,265.619720 334.306702,265.018127 330.046692,266.381592 
	C326.027557,267.667969 323.669830,273.326172 324.894653,278.694550 
	C325.793091,282.632233 328.269989,285.633575 332.626038,286.006256 
	C337.568512,286.429108 340.342407,283.166870 341.485718,279.052948 
	C342.173767,276.577118 341.203217,273.640350 340.550873,270.231934 
z"/>
<path fill="#EBF4EB" opacity="1.000000" stroke="none" 
	d="
M126.947739,258.043121 
	C128.516922,259.886780 130.570740,261.695251 130.662247,263.598083 
	C131.037979,271.410004 130.975357,279.256134 130.704941,287.076935 
	C130.635620,289.081696 129.719696,292.029419 128.284760,292.759552 
	C126.628098,293.602509 123.966949,292.471313 120.344513,292.025238 
	C114.238335,295.605408 106.311386,294.809479 101.196678,289.064636 
	C95.420349,282.576660 95.192940,270.551147 100.710350,263.344849 
	C105.250107,257.415436 113.156487,256.379883 121.321892,260.583893 
	C123.096748,259.720825 124.813431,258.886078 126.947739,258.043121 
M115.872658,285.859406 
	C120.724464,283.709106 123.303787,279.702362 122.225563,274.755280 
	C121.585068,271.816589 119.041931,268.649902 116.452774,267.002747 
	C114.703049,265.889648 111.007233,266.530975 108.853615,267.664185 
	C105.648819,269.350464 104.190750,276.479248 105.835243,280.419739 
	C107.488640,284.381531 110.539375,286.573029 115.872658,285.859406 
z"/>
<path fill="#EFF7EF" opacity="1.000000" stroke="none" 
	d="
M377.305298,291.935669 
	C367.938507,285.913330 367.741974,274.390289 371.086670,266.541260 
	C374.069336,259.541687 383.289703,256.274506 390.780731,259.054443 
	C392.362061,259.641296 394.645813,259.301941 396.269409,258.605194 
	C399.558472,257.193665 402.690765,258.044373 402.857361,261.700043 
	C403.285309,271.091736 403.225525,280.526917 402.840790,289.923462 
	C402.695618,293.469513 399.630981,294.910095 396.760132,292.734375 
	C394.622925,291.114685 393.543304,291.467651 391.419220,292.439697 
	C386.913879,294.501465 382.184387,294.536316 377.305298,291.935669 
M391.716675,283.321503 
	C392.712921,280.504791 394.339569,277.736084 394.558533,274.860199 
	C394.892059,270.479858 392.227325,267.187958 388.075043,266.129120 
	C383.758514,265.028381 380.337677,267.271454 378.249908,271.085358 
	C376.266663,274.708191 377.962219,281.973938 381.451935,284.568726 
	C384.742737,287.015594 388.150696,287.088898 391.716675,283.321503 
z"/>
<path fill="#EDF5ED" opacity="1.000000" stroke="none" 
	d="
M175.251221,266.427917 
	C180.754547,258.265930 186.961929,256.263336 195.502045,259.404205 
	C196.749557,259.863007 198.623596,259.767761 199.773300,259.136993 
	C203.975281,256.831635 206.944061,258.201294 206.983292,262.903412 
	C207.049835,270.880371 207.109802,278.864288 206.823318,286.832733 
	C206.745193,289.005951 205.991959,292.153961 204.501801,292.990967 
	C203.066299,293.797272 200.277557,292.194275 197.471832,291.498077 
	C192.231186,294.454468 186.046936,295.261353 180.100098,291.124481 
	C174.353531,287.126862 171.652008,277.887299 173.623291,270.449524 
	C173.960800,269.176056 174.549561,267.969177 175.251221,266.427917 
M186.562897,266.787445 
	C185.003128,268.767365 182.907578,270.529449 181.995544,272.772705 
	C180.115799,277.396179 182.734207,283.414978 186.963043,285.462433 
	C190.445984,287.148773 195.496780,285.459106 197.463821,281.635406 
	C199.582581,277.516815 199.378677,273.229309 196.860138,269.359650 
	C194.593155,265.876526 191.086044,265.395477 186.562897,266.787445 
z"/>
<path fill="#EDF5ED" opacity="1.000000" stroke="none" 
	d="
M276.313721,268.602539 
	C282.251465,255.597153 296.984528,255.901123 304.184814,261.376343 
	C309.665680,265.544128 312.178864,274.571442 309.744690,282.190033 
	C307.488831,289.250519 301.525024,293.039276 294.247742,293.725128 
	C280.869568,294.985870 272.497681,283.682220 276.313721,268.602539 
M302.197601,274.726776 
	C301.817902,273.477661 301.602295,272.147156 301.029968,270.993622 
	C298.611938,266.120056 292.011139,264.128296 288.166565,267.028534 
	C284.286743,269.955353 282.732452,275.957275 284.855743,280.358032 
	C286.822937,284.435272 289.954010,286.790405 294.696075,286.010986 
	C298.455322,285.393066 301.840881,280.532745 302.197601,274.726776 
z"/>
<path fill="#EFF7EF" opacity="1.000000" stroke="none" 
	d="
M141.984161,258.572388 
	C145.595200,259.102356 146.528305,261.152435 146.443893,264.226410 
	C146.307068,269.208160 146.370911,274.198029 146.458847,279.182526 
	C146.528305,283.119446 148.005463,285.980164 152.509109,286.047119 
	C156.949936,286.113129 158.714752,283.119781 158.966995,279.435852 
	C159.329514,274.141785 158.789078,268.780609 159.248016,263.501465 
	C159.397415,261.782806 161.468353,260.231201 162.660431,258.603180 
	C164.388428,259.997925 167.555283,261.347595 167.600647,262.795044 
	C167.822144,269.864990 167.919144,277.084991 166.706528,284.015045 
	C165.328491,291.890411 159.234161,294.659821 148.795670,293.570099 
	C142.677917,292.931396 137.681808,287.358948 137.499191,280.658417 
	C137.345306,275.011963 137.137543,269.326752 137.662445,263.725067 
	C137.833725,261.897247 140.236038,260.278473 141.984161,258.572388 
z"/>
<path fill="#EFF7EF" opacity="1.000000" stroke="none" 
	d="
M243.943024,273.968994 
	C243.187790,278.936127 243.302734,283.809906 241.487122,287.806763 
	C238.244507,294.944946 231.129501,293.937347 224.916901,293.454163 
	C219.903976,293.064331 215.951843,289.935120 215.220551,284.995392 
	C214.137802,277.681641 213.856293,270.204376 213.928482,262.803528 
	C213.942383,261.377563 217.012909,259.255219 218.949615,258.880005 
	C219.920792,258.691895 222.480225,261.616211 222.647034,263.298889 
	C223.185440,268.730103 223.034927,274.239258 222.978302,279.716583 
	C222.936737,283.737518 224.578934,285.845093 228.747635,286.078949 
	C233.075119,286.321655 234.886658,283.877808 235.070068,280.161011 
	C235.331955,274.854248 235.205505,269.523956 235.116745,264.205841 
	C235.061630,260.904633 236.102768,258.662567 239.778961,258.645111 
	C243.409653,258.627869 244.055634,260.993958 243.969208,264.005249 
	C243.878632,267.161285 243.945343,270.321899 243.943024,273.968994 
z"/>
<path fill="#EBF4EB" opacity="1.000000" stroke="none" 
	d="
M254.685379,255.696335 
	C256.191437,253.864471 257.692749,252.442032 259.194061,251.019592 
	C261.127747,253.324051 263.061401,255.628510 264.995087,257.932983 
	C267.003326,259.401184 271.333313,258.286713 271.281952,263.301086 
	C271.230408,268.328552 266.737457,266.257080 263.890015,267.225616 
	C263.890015,273.310272 263.890015,279.391571 263.890015,285.852051 
	C264.985840,285.852051 265.940216,285.691833 266.813812,285.889191 
	C268.151611,286.191467 269.433807,286.740112 270.739594,287.184143 
	C270.084839,289.044281 269.969879,291.902954 268.685028,292.597504 
	C261.907959,296.261139 254.869293,292.016357 254.717834,284.448822 
	C254.605209,278.821747 254.695648,273.190613 254.695648,267.283203 
	C253.497269,267.116577 252.343857,267.284515 251.673737,266.793213 
	C250.364395,265.833344 248.281570,264.361694 248.418869,263.363129 
	C248.623993,261.871094 250.301117,259.699921 251.657379,259.445526 
	C253.933197,259.018707 254.979828,258.439240 254.685379,255.696335 
z"/>
<path fill="#EFF7EF" opacity="1.000000" stroke="none" 
	d="
M356.445740,292.425476 
	C356.014862,282.176178 355.661926,272.275299 355.751678,262.378418 
	C355.761444,261.304901 358.553192,259.199585 359.662506,259.433319 
	C361.461700,259.812408 364.268463,261.669983 364.331238,263.011810 
	C364.733063,271.602020 364.738007,280.231689 364.380157,288.827820 
	C364.199738,293.161224 361.355499,294.338898 356.445740,292.425476 
z"/>
<path fill="#CBE2CB" opacity="1.000000" stroke="none" 
	d="
M161.010834,315.041809 
	C165.525116,323.512329 163.541779,330.385864 155.941574,333.815491 
	C151.360153,335.882904 146.013885,334.151276 142.524124,329.469727 
	C139.423370,325.310028 139.624191,319.444183 143.010941,315.248962 
	C146.255249,311.230225 151.984116,309.677338 156.210724,311.816864 
	C157.810150,312.626526 159.234360,313.782227 161.010834,315.041809 
M158.121521,316.339752 
	C154.378357,312.850739 150.311249,312.955109 146.522583,315.914001 
	C142.495331,319.059265 142.114075,322.580902 144.500473,326.780548 
	C146.895187,330.994843 150.339050,332.404785 154.911835,330.947052 
	C160.506805,329.163452 162.117020,323.061188 158.121521,316.339752 
z"/>
<path fill="#C5DEC5" opacity="1.000000" stroke="none" 
	d="
M340.762451,321.967377 
	C341.134399,319.388916 341.506378,316.810455 341.878357,314.231964 
	C342.469818,314.304993 343.061279,314.378021 343.652771,314.451050 
	C343.853851,316.143555 344.054962,317.836060 344.348541,320.306976 
	C346.911346,320.191071 349.580780,319.914093 352.233917,320.025513 
	C353.328247,320.071472 354.387512,320.951660 355.462738,321.452423 
	C354.920288,322.507050 354.377838,323.561676 353.902130,324.486481 
	C354.794128,326.083832 355.928772,328.115753 357.037262,330.844788 
	C357.017487,331.982239 357.023895,332.422638 357.030304,332.863007 
	C350.260620,336.038391 345.827637,335.525452 341.322388,330.652832 
	C340.998016,329.823608 341.001404,329.424805 341.081787,328.588928 
	C341.026672,326.090393 340.894562,324.028870 340.762451,321.967377 
M349.700226,330.333618 
	C351.109222,330.563995 352.518250,330.794373 353.927246,331.024750 
	C354.028351,330.468414 354.129425,329.912109 354.230499,329.355774 
	C351.224304,326.967316 348.218140,324.578857 345.211945,322.190369 
	C344.726807,322.596619 344.241669,323.002838 343.756531,323.409088 
	C344.195190,326.042511 344.633850,328.675934 344.901886,330.284973 
	C347.242035,329.921936 348.377991,329.745728 349.700226,330.333618 
z"/>
<path fill="#CBE2CB" opacity="1.000000" stroke="none" 
	d="
M264.254028,329.331543 
	C263.963287,321.127991 267.382263,318.700836 275.846924,320.826477 
	C275.930511,319.336853 276.018585,317.888245 276.091125,316.438843 
	C276.162354,315.015594 276.217743,313.591583 277.230255,312.121490 
	C279.901978,319.146820 278.210388,326.524261 279.076996,334.015533 
	C273.500580,333.912750 267.480347,337.076172 264.254028,329.331543 
M266.917450,327.377167 
	C267.004517,330.505188 269.234863,332.059357 271.695435,331.607819 
	C273.336273,331.306732 275.324493,329.106018 275.764587,327.396881 
	C276.054565,326.270660 274.153625,323.708801 272.730164,323.200836 
	C270.066467,322.250275 267.498199,323.091949 266.917450,327.377167 
z"/>
<path fill="#C1D8C1" opacity="1.000000" stroke="none" 
	d="
M186.925446,329.163147 
	C181.418030,335.268127 180.473099,335.632751 174.374146,333.780365 
	C173.987976,335.710327 173.606308,337.617798 173.224625,339.525269 
	C172.770248,339.494354 172.315857,339.463409 171.861481,339.432495 
	C171.861481,333.233917 171.861481,327.035339 171.861481,320.587555 
	C177.119461,319.867676 182.777649,318.335907 186.583984,325.270508 
	C186.933151,326.862976 186.929306,328.013062 186.925446,329.163147 
M182.207687,329.578125 
	C183.534241,326.278320 183.185791,323.496277 179.124252,323.079926 
	C177.716568,322.935638 175.461685,324.137360 174.825272,325.363495 
	C174.208023,326.552734 174.645142,328.981262 175.553055,330.122833 
	C177.322479,332.347687 179.778183,332.070953 182.207687,329.578125 
z"/>
<path fill="#CEE4CE" opacity="1.000000" stroke="none" 
	d="
M321.255096,320.208862 
	C326.462982,322.179199 326.734802,326.146393 325.747498,330.184631 
	C324.858093,333.822144 320.313049,335.242401 314.730194,334.021759 
	C314.642365,335.019135 314.723083,336.040710 314.421722,336.933258 
	C314.163757,337.697266 313.467804,338.313416 312.965576,338.994934 
	C312.366913,338.220734 311.272919,337.461090 311.249725,336.670013 
	C311.095215,331.403107 311.169617,326.129425 311.169617,320.526184 
	C314.666138,320.371704 317.753967,320.235291 321.255096,320.208862 
M321.371246,330.981720 
	C324.011230,329.123688 324.442810,326.413086 322.441376,324.349640 
	C321.360260,323.235077 318.217773,322.890686 316.829437,323.669006 
	C315.583984,324.367249 314.606262,327.333191 315.054108,328.839966 
	C315.717010,331.070374 317.638763,333.162537 321.371246,330.981720 
z"/>
<path fill="#C5DEC5" opacity="1.000000" stroke="none" 
	d="
M211.730042,323.939056 
	C214.912552,318.700439 219.959518,320.079163 224.642090,320.425354 
	C225.350266,320.477722 226.533096,321.530426 226.560623,322.161255 
	C226.736374,326.188080 226.650131,330.226318 226.650131,335.547546 
	C221.590073,334.344238 217.217377,334.052429 213.732971,332.141174 
	C212.135208,331.264832 212.282883,327.206329 211.716370,324.193756 
	C211.793716,323.796631 211.730042,323.939056 211.730042,323.939056 
M221.526566,330.884399 
	C223.375320,328.656647 224.581635,326.064758 221.662949,324.167816 
	C220.264877,323.259186 217.630890,323.350433 216.004059,324.041718 
	C215.063065,324.441528 214.297897,327.166016 214.708145,328.440491 
	C215.585022,331.164642 217.659180,332.742371 221.526566,330.884399 
z"/>
<path fill="#CBE2CB" opacity="1.000000" stroke="none" 
	d="
M341.004791,329.026001 
	C341.001404,329.424805 340.998016,329.823608 340.994171,330.521545 
	C338.688782,333.987366 335.921356,335.783264 331.827148,334.176636 
	C327.435822,332.453461 326.842773,328.724670 327.066925,324.827240 
	C327.340057,320.078369 334.196747,318.438354 339.796631,322.245667 
	C337.960327,325.544189 335.633392,328.379242 333.306458,331.214294 
	C333.524902,331.465729 333.743347,331.717163 333.961792,331.968597 
	C336.309448,330.987701 338.657104,330.006836 341.004791,329.026001 
z"/>
<path fill="#CEE4CE" opacity="1.000000" stroke="none" 
	d="
M186.988464,329.516907 
	C186.929306,328.013062 186.933151,326.862976 186.936035,325.281555 
	C189.596497,317.629883 195.417664,320.512268 200.706207,320.638916 
	C200.706207,325.175568 200.706207,329.715576 200.706207,334.261627 
	C195.828842,333.734406 189.692886,337.224396 186.988464,329.516907 
M196.530746,323.544891 
	C193.644852,321.861877 191.008713,322.954742 189.859848,325.429626 
	C189.252045,326.738953 190.375259,329.668304 191.658295,330.773346 
	C192.635071,331.614594 195.593338,331.386597 196.785660,330.476166 
	C198.917099,328.848511 199.406296,326.321533 196.530746,323.544891 
z"/>
<path fill="#CBE2CB" opacity="1.000000" stroke="none" 
	d="
M283.520691,333.557556 
	C279.638519,331.064087 279.285706,327.734894 280.609314,324.198029 
	C281.772095,321.090790 284.250244,319.716919 287.674835,319.925598 
	C292.031006,320.191040 294.647980,323.155914 294.968231,328.484741 
	C295.121704,331.038483 290.948425,334.699310 287.638367,334.684021 
	C286.374115,334.678192 285.112518,334.085571 283.520691,333.557556 
M285.048370,323.254730 
	C284.609772,325.424744 283.679230,327.669067 283.990143,329.725800 
	C284.104279,330.480988 287.601746,331.671570 288.755280,331.086090 
	C290.236877,330.334076 290.911926,327.992920 291.934418,326.336365 
	C289.892273,325.209534 287.850128,324.082703 285.048370,323.254730 
z"/>
<path fill="#C5DEC5" opacity="1.000000" stroke="none" 
	d="
M244.808319,321.822388 
	C250.049072,318.870331 254.732193,319.735077 256.634644,323.648468 
	C258.237488,326.945557 256.724121,332.806824 253.221420,333.732239 
	C250.627594,334.417480 246.588821,334.054840 244.813568,332.410370 
	C241.945618,329.753662 241.860001,325.649170 244.808319,321.822388 
M252.648468,330.938416 
	C254.459564,328.795471 256.036835,326.319214 253.033005,324.295258 
	C251.610046,323.336517 248.704849,322.991821 247.447433,323.831299 
	C246.253693,324.628174 245.356812,328.204987 246.071106,329.005676 
	C247.301880,330.385376 249.883942,330.559631 252.648468,330.938416 
z"/>
<path fill="#C1D8C1" opacity="1.000000" stroke="none" 
	d="
M240.214249,325.986511 
	C240.603851,328.630768 241.206558,331.154663 240.567276,333.310150 
	C240.332001,334.103424 236.760910,334.820496 235.435135,334.147186 
	C233.759094,333.296021 232.822235,330.989380 231.111633,328.702301 
	C235.146179,327.767090 236.027649,334.931946 238.634323,331.112305 
	C236.850510,327.349182 235.470795,324.438507 234.091080,321.527863 
	C235.710175,321.056244 237.360718,320.164490 238.935684,320.282318 
	C239.780106,320.345520 240.494553,322.145508 240.407104,323.899170 
	C239.393616,323.603271 238.380112,323.307404 237.366608,323.011536 
	C237.266098,323.197235 237.165588,323.382904 237.065063,323.568604 
	C238.021713,324.285767 238.978363,325.002930 240.214249,325.986511 
z"/>
<path fill="#C1D8C1" opacity="1.000000" stroke="none" 
	d="
M301.892395,323.960754 
	C302.343353,326.431213 303.539612,328.888672 303.808258,331.443665 
	C303.910065,332.411926 302.047089,334.052094 300.756500,334.552216 
	C299.748657,334.942810 298.241486,334.045074 296.298981,333.553436 
	C298.604980,331.994141 299.955933,331.080627 301.306885,330.167145 
	C300.081757,329.128113 298.470856,328.308563 297.724731,326.997040 
	C296.687225,325.173309 296.297852,322.980865 295.247406,319.775879 
	C298.602539,320.221100 300.743286,320.505188 302.884003,320.789246 
	C302.678772,321.855072 302.473541,322.920837 301.892395,323.960754 
z"/>
<path fill="#CEE4CE" opacity="1.000000" stroke="none" 
	d="
M364.497192,249.641693 
	C363.949493,251.829834 363.692596,254.723129 362.476440,255.207397 
	C360.683533,255.921326 357.921387,255.432220 356.139221,254.438385 
	C355.205322,253.917587 354.986328,251.127060 355.315247,249.542297 
	C355.933258,246.564575 360.744781,246.494461 364.497192,249.641693 
z"/>
<path fill="#C1D8C1" opacity="1.000000" stroke="none" 
	d="
M357.256836,333.140137 
	C357.023895,332.422638 357.017487,331.982239 357.027405,331.211914 
	C357.388977,326.425537 357.740295,321.969604 358.076508,317.512543 
	C358.214569,315.682343 358.320160,313.849640 358.440521,312.018097 
	C358.903778,311.980957 359.367035,311.943817 359.830292,311.906677 
	C360.142517,312.816071 360.692047,313.716156 360.728119,314.636383 
	C360.949585,320.284760 361.075348,325.937256 361.191040,331.589264 
	C361.255859,334.756714 360.166870,335.744751 357.256836,333.140137 
z"/>
<path fill="#C1D8C1" opacity="1.000000" stroke="none" 
	d="
M211.708557,323.482361 
	C211.730042,323.939056 211.793716,323.796631 211.829163,323.789124 
	C206.976868,322.626678 206.268616,323.424957 205.687485,328.251282 
	C205.439529,330.310760 208.219910,333.836639 203.592896,334.539642 
	C203.420044,332.544037 203.161301,330.551270 203.095596,328.552155 
	C203.009109,325.920288 203.074341,323.283478 203.074341,319.928833 
	C205.769211,322.094391 210.288589,316.909912 211.708557,323.482361 
z"/>
<path fill="#CEE4CE" opacity="1.000000" stroke="none" 
	d="
M231.016312,327.972168 
	C231.007889,330.391785 231.007889,332.363678 231.007889,334.576569 
	C228.241455,332.805634 227.683655,327.430908 229.231155,320.876801 
	C229.703842,320.818451 230.176514,320.760071 230.649200,320.701721 
	C230.774368,322.975952 230.899551,325.250214 231.016312,327.972168 
z"/>
<path fill="#0D140E" opacity="1.000000" stroke="none" 
	d="
M341.081787,328.588928 
	C338.657104,330.006836 336.309448,330.987701 333.961792,331.968597 
	C333.743347,331.717163 333.524902,331.465729 333.306458,331.214294 
	C335.633392,328.379242 337.960327,325.544189 340.164612,322.347717 
	C340.041992,321.986328 340.401062,321.934753 340.581757,321.951050 
	C340.894562,324.028870 341.026672,326.090393 341.081787,328.588928 
z"/>
<path fill="#0D140E" opacity="1.000000" stroke="none" 
	d="
M209.652100,184.738693 
	C209.720901,175.865570 215.105423,171.774017 224.352844,173.765717 
	C224.452881,171.640717 224.836945,169.552780 224.592499,167.541245 
	C223.848557,161.419464 227.792877,157.803467 232.532181,156.087646 
	C238.110001,154.068237 243.399002,155.874435 246.224747,160.859283 
	C248.429230,164.748138 249.619217,164.829651 252.126938,161.114532 
	C255.725967,155.782669 261.050018,154.180618 266.426575,156.086319 
	C271.539185,157.898438 274.125610,162.076828 274.150177,168.571854 
	C274.156342,170.199478 274.151093,171.827118 274.151093,173.167847 
	C277.231750,173.337814 280.027039,172.831390 282.252808,173.732162 
	C290.718719,177.158340 291.840179,186.830795 284.373169,192.263306 
	C281.116211,194.632843 277.213776,196.115189 273.296295,198.161407 
	C276.243469,203.586639 277.830963,209.618546 276.194458,216.430069 
	C274.105438,225.124985 266.744080,229.836853 259.136993,225.075317 
	C251.757355,220.456116 246.242599,221.434387 239.323456,225.394974 
	C232.017044,229.577240 225.057495,225.819839 222.717575,217.581635 
	C221.054199,211.725403 221.705765,205.794189 225.001617,197.711258 
	C218.707413,195.040726 211.301254,193.505646 209.652100,184.738693 
M230.797775,193.263031 
	C232.405930,188.192780 231.533157,183.641129 227.882782,179.718094 
	C225.527908,177.187317 222.975525,174.362350 219.171158,176.100815 
	C216.890945,177.142822 214.148026,179.015366 213.390686,181.146362 
	C212.002213,185.053146 212.801056,189.480759 217.008316,191.450714 
	C220.741257,193.198608 225.000641,193.822235 229.746674,195.447876 
	C225.400116,201.626938 222.795746,208.134079 225.055634,215.905441 
	C226.706085,221.581009 232.522446,226.256073 236.331573,223.942703 
	C244.618469,218.909958 252.439453,217.978333 261.103333,223.286285 
	C264.947296,225.641296 270.243866,223.159485 271.979675,219.218658 
	C275.645050,210.897263 274.819550,202.943100 268.763733,196.059097 
	C263.398956,189.960693 256.836823,186.224213 248.206589,186.589401 
	C241.351807,186.879486 236.168045,190.349121 230.797775,193.263031 
M267.413361,179.881042 
	C268.925842,176.650757 271.024902,173.556595 271.813477,170.158325 
	C273.000061,165.044952 269.903534,160.925308 264.356110,158.884766 
	C259.909515,157.249115 255.449692,158.619095 253.280396,163.511551 
	C251.692444,167.092926 251.280762,171.349777 251.065475,175.344391 
	C250.830307,179.707932 252.638123,183.672333 257.069855,185.079178 
	C261.391327,186.451035 264.641998,184.112793 267.413361,179.881042 
M233.226440,159.474991 
	C228.474289,161.356750 225.934479,164.990646 226.778778,169.923386 
	C227.760468,175.658798 230.135056,180.850098 235.560577,184.122833 
	C239.173950,186.302429 243.511078,185.795822 245.457184,182.187698 
	C248.919617,175.768311 248.940277,168.960190 245.147781,162.914612 
	C242.846100,159.245499 238.873260,156.619308 233.226440,159.474991 
M276.593292,194.401581 
	C278.974243,192.682693 281.654205,191.255341 283.673645,189.183975 
	C287.823242,184.927673 286.333008,178.638321 280.885895,176.214645 
	C276.553467,174.286942 271.063263,177.103958 268.345703,183.540665 
	C267.230621,186.181839 266.784790,190.148972 268.035797,192.401489 
	C268.965485,194.075485 273.119720,193.958664 276.593292,194.401581 
z"/>
<path fill="#030403" opacity="1.000000" stroke="none" 
	d="
M340.764465,270.571320 
	C341.203217,273.640350 342.173767,276.577118 341.485718,279.052948 
	C340.342407,283.166870 337.568512,286.429108 332.626038,286.006256 
	C328.269989,285.633575 325.793091,282.632233 324.894653,278.694550 
	C323.669830,273.326172 326.027557,267.667969 330.046692,266.381592 
	C334.306702,265.018127 338.273499,265.619720 340.764465,270.571320 
z"/>
<path fill="#050705" opacity="1.000000" stroke="none" 
	d="
M115.478897,285.945679 
	C110.539375,286.573029 107.488640,284.381531 105.835243,280.419739 
	C104.190750,276.479248 105.648819,269.350464 108.853615,267.664185 
	C111.007233,266.530975 114.703049,265.889648 116.452774,267.002747 
	C119.041931,268.649902 121.585068,271.816589 122.225563,274.755280 
	C123.303787,279.702362 120.724464,283.709106 115.478897,285.945679 
z"/>
<path fill="#050705" opacity="1.000000" stroke="none" 
	d="
M391.452148,283.605225 
	C388.150696,287.088898 384.742737,287.015594 381.451935,284.568726 
	C377.962219,281.973938 376.266663,274.708191 378.249908,271.085358 
	C380.337677,267.271454 383.758514,265.028381 388.075043,266.129120 
	C392.227325,267.187958 394.892059,270.479858 394.558533,274.860199 
	C394.339569,277.736084 392.712921,280.504791 391.452148,283.605225 
z"/>
<path fill="#030403" opacity="1.000000" stroke="none" 
	d="
M186.917496,266.597382 
	C191.086044,265.395477 194.593155,265.876526 196.860138,269.359650 
	C199.378677,273.229309 199.582581,277.516815 197.463821,281.635406 
	C195.496780,285.459106 190.445984,287.148773 186.963043,285.462433 
	C182.734207,283.414978 180.115799,277.396179 181.995544,272.772705 
	C182.907578,270.529449 185.003128,268.767365 186.917496,266.597382 
z"/>
<path fill="#050705" opacity="1.000000" stroke="none" 
	d="
M302.200134,275.138550 
	C301.840881,280.532745 298.455322,285.393066 294.696075,286.010986 
	C289.954010,286.790405 286.822937,284.435272 284.855743,280.358032 
	C282.732452,275.957275 284.286743,269.955353 288.166565,267.028534 
	C292.011139,264.128296 298.611938,266.120056 301.029968,270.993622 
	C301.602295,272.147156 301.817902,273.477661 302.200134,275.138550 
z"/>
<path fill="#030403" opacity="1.000000" stroke="none" 
	d="
M158.399902,316.618561 
	C162.117020,323.061188 160.506805,329.163452 154.911835,330.947052 
	C150.339050,332.404785 146.895187,330.994843 144.500473,326.780548 
	C142.114075,322.580902 142.495331,319.059265 146.522583,315.914001 
	C150.311249,312.955109 154.378357,312.850739 158.399902,316.618561 
z"/>
<path fill="#0D140E" opacity="1.000000" stroke="none" 
	d="
M349.607056,329.951538 
	C348.377991,329.745728 347.242035,329.921936 344.901886,330.284973 
	C344.633850,328.675934 344.195190,326.042511 343.756531,323.409088 
	C344.241669,323.002838 344.726807,322.596619 345.211945,322.190369 
	C348.218140,324.578857 351.224304,326.967316 354.230499,329.355774 
	C354.129425,329.912109 354.028351,330.468414 353.927246,331.024750 
	C352.518250,330.794373 351.109222,330.563995 349.607056,329.951538 
z"/>
<path fill="#050705" opacity="1.000000" stroke="none" 
	d="
M266.917999,326.968933 
	C267.498199,323.091949 270.066467,322.250275 272.730164,323.200836 
	C274.153625,323.708801 276.054565,326.270660 275.764587,327.396881 
	C275.324493,329.106018 273.336273,331.306732 271.695435,331.607819 
	C269.234863,332.059357 267.004517,330.505188 266.917999,326.968933 
z"/>
<path fill="#050705" opacity="1.000000" stroke="none" 
	d="
M182.100128,329.951080 
	C179.778183,332.070953 177.322479,332.347687 175.553055,330.122833 
	C174.645142,328.981262 174.208023,326.552734 174.825272,325.363495 
	C175.461685,324.137360 177.716568,322.935638 179.124252,323.079926 
	C183.185791,323.496277 183.534241,326.278320 182.100128,329.951080 
z"/>
<path fill="#0D140E" opacity="1.000000" stroke="none" 
	d="
M321.013214,331.091736 
	C317.638763,333.162537 315.717010,331.070374 315.054108,328.839966 
	C314.606262,327.333191 315.583984,324.367249 316.829437,323.669006 
	C318.217773,322.890686 321.360260,323.235077 322.441376,324.349640 
	C324.442810,326.413086 324.011230,329.123688 321.013214,331.091736 
z"/>
<path fill="#030403" opacity="1.000000" stroke="none" 
	d="
M221.163498,331.032776 
	C217.659180,332.742371 215.585022,331.164642 214.708145,328.440491 
	C214.297897,327.166016 215.063065,324.441528 216.004059,324.041718 
	C217.630890,323.350433 220.264877,323.259186 221.662949,324.167816 
	C224.581635,326.064758 223.375320,328.656647 221.163498,331.032776 
z"/>
<path fill="#0D140E" opacity="1.000000" stroke="none" 
	d="
M196.800049,323.810883 
	C199.406296,326.321533 198.917099,328.848511 196.785660,330.476166 
	C195.593338,331.386597 192.635071,331.614594 191.658295,330.773346 
	C190.375259,329.668304 189.252045,326.738953 189.859848,325.429626 
	C191.008713,322.954742 193.644852,321.861877 196.800049,323.810883 
z"/>
<path fill="#050705" opacity="1.000000" stroke="none" 
	d="
M285.428162,323.105286 
	C287.850128,324.082703 289.892273,325.209534 291.934418,326.336365 
	C290.911926,327.992920 290.236877,330.334076 288.755280,331.086090 
	C287.601746,331.671570 284.104279,330.480988 283.990143,329.725800 
	C283.679230,327.669067 284.609772,325.424744 285.428162,323.105286 
z"/>
<path fill="#0D140E" opacity="1.000000" stroke="none" 
	d="
M252.273712,331.089050 
	C249.883942,330.559631 247.301880,330.385376 246.071106,329.005676 
	C245.356812,328.204987 246.253693,324.628174 247.447433,323.831299 
	C248.704849,322.991821 251.610046,323.336517 253.033005,324.295258 
	C256.036835,326.319214 254.459564,328.795471 252.273712,331.089050 
z"/>
<path fill="#CEE4CE" opacity="1.000000" stroke="none" 
	d="
M230.945282,194.053192 
	C236.168045,190.349121 241.351807,186.879486 248.206589,186.589401 
	C256.836823,186.224213 263.398956,189.960693 268.763733,196.059097 
	C274.819550,202.943100 275.645050,210.897263 271.979675,219.218658 
	C270.243866,223.159485 264.947296,225.641296 261.103333,223.286285 
	C252.439453,217.978333 244.618469,218.909958 236.331573,223.942703 
	C232.522446,226.256073 226.706085,221.581009 225.055634,215.905441 
	C222.795746,208.134079 225.400116,201.626938 229.359787,195.207932 
	C228.972900,194.967987 228.964325,195.027908 229.233368,195.372925 
	C230.025665,195.131790 230.548935,194.545654 231.031799,193.971161 
	C230.991409,193.982834 230.945282,194.053192 230.945282,194.053192 
M234.815872,195.224579 
	C230.383530,199.255295 227.488251,203.744446 227.775909,210.257690 
	C228.260422,221.228348 231.796082,223.648911 241.334015,218.310333 
	C246.734299,215.287674 251.750656,214.338379 256.937683,218.492462 
	C257.674713,219.082687 258.759277,219.221954 259.650513,219.639313 
	C265.528839,222.392242 269.063385,221.222397 270.391205,215.119263 
	C271.151978,211.622574 271.108154,207.419785 269.873138,204.115479 
	C265.455109,192.295120 249.503571,183.069336 234.815872,195.224579 
z"/>
<path fill="#CBE2CB" opacity="1.000000" stroke="none" 
	d="
M267.180511,180.163177 
	C264.641998,184.112793 261.391327,186.451035 257.069855,185.079178 
	C252.638123,183.672333 250.830307,179.707932 251.065475,175.344391 
	C251.280762,171.349777 251.692444,167.092926 253.280396,163.511551 
	C255.449692,158.619095 259.909515,157.249115 264.356110,158.884766 
	C269.903534,160.925308 273.000061,165.044952 271.813477,170.158325 
	C271.024902,173.556595 268.925842,176.650757 267.180511,180.163177 
M268.681763,167.036591 
	C267.353607,163.378708 264.799500,161.366440 260.854614,161.640366 
	C256.633942,161.933426 254.881775,164.965668 254.525497,168.609467 
	C254.198471,171.954102 254.106628,175.490631 254.848801,178.727631 
	C255.750977,182.662628 258.956573,183.193710 262.386292,180.843307 
	C267.040222,177.653915 268.200348,172.860321 268.681763,167.036591 
z"/>
<path fill="#CEE4CE" opacity="1.000000" stroke="none" 
	d="
M233.530090,159.231186 
	C238.873260,156.619308 242.846100,159.245499 245.147781,162.914612 
	C248.940277,168.960190 248.919617,175.768311 245.457184,182.187698 
	C243.511078,185.795822 239.173950,186.302429 235.560577,184.122833 
	C230.135056,180.850098 227.760468,175.658798 226.778778,169.923386 
	C225.934479,164.990646 228.474289,161.356750 233.530090,159.231186 
M232.085892,176.132904 
	C232.992966,177.305313 233.835648,178.534988 234.818466,179.640045 
	C238.744141,184.053955 242.095047,183.324814 244.211105,177.842514 
	C246.028717,173.133469 245.176437,168.581314 242.705780,164.718552 
	C241.590546,162.974945 238.147690,161.646835 236.008942,161.939972 
	C233.964920,162.220169 231.103668,164.581726 230.650894,166.509674 
	C229.999802,169.282043 231.204758,172.490280 232.085892,176.132904 
z"/>
<path fill="#CBE2CB" opacity="1.000000" stroke="none" 
	d="
M229.000275,194.955063 
	C225.000641,193.822235 220.741257,193.198608 217.008316,191.450714 
	C212.801056,189.480759 212.002213,185.053146 213.390686,181.146362 
	C214.148026,179.015366 216.890945,177.142822 219.171158,176.100815 
	C222.975525,174.362350 225.527908,177.187317 227.882782,179.718094 
	C231.533157,183.641129 232.405930,188.192780 230.871521,193.658112 
	C230.945282,194.053192 230.991409,193.982834 230.679291,193.868256 
	C229.899551,194.178436 229.431931,194.603165 228.964325,195.027908 
	C228.964325,195.027908 228.972900,194.967987 229.000275,194.955063 
M227.687805,191.417175 
	C230.067657,186.888153 225.445587,178.643295 220.527878,178.645309 
	C216.691971,178.646881 213.783249,183.570175 216.297119,186.546310 
	C218.934540,189.668716 221.990433,193.075256 227.687805,191.417175 
z"/>
<path fill="#CBE2CB" opacity="1.000000" stroke="none" 
	d="
M276.215515,194.520538 
	C273.119720,193.958664 268.965485,194.075485 268.035797,192.401489 
	C266.784790,190.148972 267.230621,186.181839 268.345703,183.540665 
	C271.063263,177.103958 276.553467,174.286942 280.885895,176.214645 
	C286.333008,178.638321 287.823242,184.927673 283.673645,189.183975 
	C281.654205,191.255341 278.974243,192.682693 276.215515,194.520538 
M272.496826,192.107544 
	C276.838562,192.033005 279.979675,189.789627 282.232605,186.332794 
	C284.341003,183.097809 282.170380,178.212341 278.634979,178.820374 
	C276.032043,179.268021 273.303253,181.622818 271.588715,183.861588 
	C269.841980,186.142471 267.934601,189.357025 272.496826,192.107544 
z"/>
<path fill="#020302" opacity="1.000000" stroke="none" 
	d="
M235.144714,195.060684 
	C249.503571,183.069336 265.455109,192.295120 269.873138,204.115479 
	C271.108154,207.419785 271.151978,211.622574 270.391205,215.119263 
	C269.063385,221.222397 265.528839,222.392242 259.650513,219.639313 
	C258.759277,219.221954 257.674713,219.082687 256.937683,218.492462 
	C251.750656,214.338379 246.734299,215.287674 241.334015,218.310333 
	C231.796082,223.648911 228.260422,221.228348 227.775909,210.257690 
	C227.488251,203.744446 230.383530,199.255295 235.144714,195.060684 
z"/>
<path fill="#0D140E" opacity="1.000000" stroke="none" 
	d="
M229.233368,195.372925 
	C229.431931,194.603165 229.899551,194.178436 230.719681,193.856598 
	C230.548935,194.545654 230.025665,195.131790 229.233368,195.372925 
z"/>
<path fill="#030403" opacity="1.000000" stroke="none" 
	d="
M268.812042,167.411438 
	C268.200348,172.860321 267.040222,177.653915 262.386292,180.843307 
	C258.956573,183.193710 255.750977,182.662628 254.848801,178.727631 
	C254.106628,175.490631 254.198471,171.954102 254.525497,168.609467 
	C254.881775,164.965668 256.633942,161.933426 260.854614,161.640366 
	C264.799500,161.366440 267.353607,163.378708 268.812042,167.411438 
z"/>
<path fill="#050705" opacity="1.000000" stroke="none" 
	d="
M231.851685,175.822693 
	C231.204758,172.490280 229.999802,169.282043 230.650894,166.509674 
	C231.103668,164.581726 233.964920,162.220169 236.008942,161.939972 
	C238.147690,161.646835 241.590546,162.974945 242.705780,164.718552 
	C245.176437,168.581314 246.028717,173.133469 244.211105,177.842514 
	C242.095047,183.324814 238.744141,184.053955 234.818466,179.640045 
	C233.835648,178.534988 232.992966,177.305313 231.851685,175.822693 
z"/>
<path fill="#050705" opacity="1.000000" stroke="none" 
	d="
M227.356049,191.648773 
	C221.990433,193.075256 218.934540,189.668716 216.297119,186.546310 
	C213.783249,183.570175 216.691971,178.646881 220.527878,178.645309 
	C225.445587,178.643295 230.067657,186.888153 227.356049,191.648773 
z"/>
<path fill="#050705" opacity="1.000000" stroke="none" 
	d="
M272.082306,192.059387 
	C267.934601,189.357025 269.841980,186.142471 271.588715,183.861588 
	C273.303253,181.622818 276.032043,179.268021 278.634979,178.820374 
	C282.170380,178.212341 284.341003,183.097809 282.232605,186.332794 
	C279.979675,189.789627 276.838562,192.033005 272.082306,192.059387 
z"/>
</svg>